# xmcd
#
# Track frame offsets: 
#        150
#        14693
#        28458
#        50273
#        62408
#        88610
#        105662
#        142435
#        159748
#
# Disc length: 2363 seconds
#
# Revision: 0
# Processed by: cddbd v1.5.2PL0 Copyright (c) Steve Scherf et al.
# Submitted via: ExactAudioCopy v0.90b4
#
DISCID=7f093909
DTITLE=Avey Brothers - Devil In My Bed
DYEAR=2008
DGENRE=Blues
TTITLE0=Devil In My Bed
TTITLE1=Worried Mind
TTITLE2=My Little Girl
TTITLE3=She's Evil
TTITLE4=Nobody Home
TTITLE5=Got To Work
TTITLE6=Restless
TTITLE7=Garbageman
TTITLE8=Her Mind Is Gone
EXTD=
EXTT0=
EXTT1=
EXTT2=
EXTT3=
EXTT4=
EXTT5=
EXTT6=
EXTT7=
EXTT8=
PLAYORDER=
